<?xml version="1.0" standalone="no"?>
<!DOCTYPE svg PUBLIC "-//W3C//DTD SVG 20010904//EN"
 "http://www.w3.org/TR/2001/REC-SVG-20010904/DTD/svg10.dtd">
<svg version="1.0" xmlns="http://www.w3.org/2000/svg"
 width="635.000000pt" height="635.000000pt" viewBox="0 0 635.000000 635.000000"
 preserveAspectRatio="xMidYMid meet">
<metadata>
Created by potrace 1.11, written by Peter Selinger 2001-2013
</metadata>
<g transform="translate(0.000000,635.000000) scale(0.100000,-0.100000)"
fill="#000000" stroke="none">
<path d="M2455 4678 c-55 -4 -134 -8 -175 -7 -307 6 -447 -1 -435 -22 4 -5 2
-9 -4 -9 -5 0 -12 4 -15 9 -4 5 -23 5 -46 -1 -40 -10 -49 -21 -30 -33 21 -13
10 -35 -17 -35 -22 0 -25 2 -13 10 13 9 13 11 0 19 -10 7 -20 4 -32 -9 -23
-25 -23 -30 5 -31 12 0 16 -3 10 -6 -34 -13 -5 -23 71 -23 79 0 113 10 84 24
-7 4 -3 4 9 2 12 -2 30 2 40 9 48 33 206 75 217 57 3 -5 -22 -13 -56 -16 -43
-5 -57 -10 -47 -17 10 -6 11 -9 1 -9 -7 0 -10 -4 -7 -10 3 -5 32 -10 64 -10
31 0 62 -5 69 -12 16 -16 15 -50 0 -67 -11 -11 -9 -12 9 -7 12 4 24 2 28 -4 4
-6 -4 -10 -19 -10 -27 0 -42 -15 -26 -25 6 -4 17 -1 25 5 11 9 15 9 15 1 0 -6
-11 -16 -24 -21 -38 -14 -47 -40 -33 -96 10 -41 18 -52 47 -66 l35 -17 55 60
c33 35 64 59 76 59 12 0 41 11 65 23 24 13 64 27 89 31 56 9 133 43 126 55 -9
14 4 41 20 41 21 0 39 40 23 52 -10 7 -8 8 8 5 27 -6 40 8 16 17 -25 10 1 31
62 50 l50 15 -55 0 c-31 1 -60 5 -65 10 -16 14 -114 18 -220 9z"/>
<path d="M1613 4614 c-17 -12 -16 -13 10 -14 15 0 30 0 34 -1 4 0 9 4 11 9 5
16 -36 21 -55 6z"/>
<path d="M1500 4605 c-23 -9 -28 -14 -15 -14 30 -1 65 10 65 20 0 11 -7 11
-50 -6z"/>
<path d="M1385 4588 c-75 -13 -85 -19 -45 -30 56 -16 121 -19 170 -10 l45 9
-29 12 c-22 9 -32 9 -43 -1 -13 -10 -18 -9 -32 8 -14 17 -22 19 -66 12z"/>
<path d="M1567 4586 c-9 -23 7 -36 45 -36 15 0 30 -4 33 -10 3 -5 1 -10 -6
-10 -7 0 -21 -8 -32 -17 -19 -17 -19 -17 -13 3 6 18 3 20 -24 16 -16 -2 -30
-9 -30 -14 0 -6 -6 -8 -14 -5 -25 10 -27 -6 -4 -22 13 -9 24 -27 26 -40 2 -24
2 -24 -17 -7 -19 17 -20 17 -40 -3 -15 -15 -32 -21 -63 -19 -37 1 -39 2 -10 5
17 2 32 8 32 14 0 5 8 9 18 9 16 1 16 2 -2 15 -17 13 -17 15 10 41 l29 26 -35
-7 c-19 -4 -38 -12 -41 -17 -4 -6 -9 -6 -13 1 -4 6 -12 9 -17 5 -5 -3 -23 2
-41 10 -43 22 -93 20 -145 -5 -51 -25 -47 -44 8 -35 39 6 39 6 27 -20 -10 -21
-17 -24 -37 -19 -15 3 -42 7 -61 8 -19 1 -37 5 -40 8 -3 4 -43 0 -89 -7 -46
-7 -87 -12 -91 -9 -3 2 -51 11 -106 20 -103 17 -179 13 -244 -10 -19 -8 -47
-16 -61 -19 -22 -5 -25 -10 -21 -31 4 -23 2 -25 -19 -20 -33 7 -84 -8 -84 -26
0 -10 10 -13 35 -11 46 5 28 -14 -20 -21 -54 -8 -99 -27 -110 -47 -14 -26 -13
-30 8 -30 14 0 15 -2 2 -10 -12 -8 -11 -10 7 -10 12 0 25 -4 28 -10 3 -5 5
-10 3 -10 -2 -1 -48 -16 -103 -36 -88 -30 -90 -35 -7 -18 12 2 45 14 73 25 28
11 60 17 71 13 22 -7 69 20 65 38 -1 8 17 13 51 14 29 1 59 7 66 13 31 26 128
-15 125 -52 -4 -48 1 -66 16 -61 8 4 15 1 15 -5 0 -6 -5 -11 -10 -11 -6 0 -8
-10 -4 -24 3 -14 0 -29 -10 -38 -13 -13 -13 -18 0 -36 17 -25 7 -58 -34 -112
-52 -68 -63 -100 -57 -164 4 -43 10 -63 25 -73 10 -7 22 -30 25 -51 3 -20 11
-45 16 -55 7 -13 7 -23 -1 -32 -9 -11 -7 -17 9 -27 12 -7 21 -22 21 -34 0 -21
36 -62 46 -52 3 4 1 14 -5 25 -12 21 -51 137 -51 153 0 5 7 10 15 10 10 0 15
-10 15 -26 0 -15 10 -43 22 -63 13 -20 22 -38 22 -41 -1 -3 10 -19 23 -37 15
-19 24 -43 23 -60 -1 -15 -2 -33 -1 -38 1 -6 31 -28 68 -50 48 -28 77 -39 104
-38 27 1 42 -4 59 -22 13 -14 38 -28 57 -31 21 -4 41 -17 54 -35 11 -16 17
-29 12 -29 -13 0 41 -47 75 -64 38 -20 42 -20 42 -2 0 29 19 26 34 -5 24 -48
20 -89 -12 -124 -38 -42 -52 -77 -40 -99 7 -12 7 -21 -1 -29 -15 -15 -14 -54
3 -64 7 -4 35 -50 62 -102 34 -65 58 -99 78 -110 89 -49 92 -58 101 -241 12
-238 14 -266 26 -323 11 -55 22 -71 32 -44 3 6 6 -1 6 -16 1 -16 -2 -26 -6
-24 -5 3 -8 -8 -9 -24 -1 -19 4 -29 13 -29 10 0 12 -6 8 -19 -4 -13 1 -27 14
-40 12 -12 21 -23 21 -25 0 -3 15 -20 33 -39 38 -40 101 -67 140 -60 35 7 34
15 -5 33 -18 8 -40 27 -51 42 -18 25 -19 28 -3 59 16 32 16 33 -11 55 -25 20
-26 23 -10 29 9 4 17 18 17 31 0 13 6 24 13 24 6 0 1 9 -13 20 l-25 20 28 0
c24 0 27 3 21 25 -6 23 -3 25 24 25 35 0 69 37 52 54 -18 18 -11 36 14 36 25
0 56 36 56 65 0 8 4 15 10 15 14 0 40 67 40 106 0 28 6 38 40 59 22 14 49 25
60 25 30 0 62 79 62 154 1 34 6 67 11 75 6 7 16 21 22 31 5 9 19 30 29 44 24
35 13 99 -19 104 -11 2 -30 13 -41 24 -12 10 -34 21 -50 23 -53 8 -59 10 -84
28 -13 9 -34 17 -46 17 -24 0 -54 29 -54 53 0 9 -4 19 -10 22 -5 3 -10 13 -10
21 0 25 -42 53 -79 54 -27 0 -43 9 -77 45 -23 25 -47 45 -53 45 -6 0 -11 4
-11 8 0 5 -21 8 -47 8 -29 0 -59 7 -75 18 -17 11 -28 13 -33 7 -3 -6 -14 -11
-23 -11 -14 0 -15 2 -2 10 8 5 11 12 7 16 -4 4 -15 0 -25 -9 -10 -10 -26 -17
-36 -17 -9 0 -20 -8 -23 -17 -4 -10 -13 -24 -20 -32 -12 -11 -17 -11 -33 4
-17 15 -24 16 -46 7 -33 -15 -31 -16 -49 12 -13 19 -14 32 -5 71 13 56 6 65
-53 65 -43 0 -43 5 -6 84 11 22 19 41 19 43 0 6 -55 2 -66 -5 -6 -4 -13 -15
-17 -25 -8 -21 -54 -40 -82 -33 -41 10 -58 87 -30 136 8 14 14 35 15 47 0 13
13 29 37 43 30 17 45 20 85 15 38 -6 48 -4 46 7 -3 15 51 21 68 6 7 -5 18 -7
25 -6 9 2 15 -12 19 -40 13 -91 55 -77 45 16 -5 50 -4 55 27 83 18 17 50 39
71 50 21 11 37 27 37 37 0 24 82 110 113 117 14 4 27 15 30 26 3 11 25 28 52
39 56 24 61 25 45 5 -10 -12 -10 -15 3 -15 9 0 19 5 22 10 3 6 13 10 21 10 8
0 30 7 49 14 25 11 33 19 29 31 -6 14 -8 14 -25 -1 -11 -10 -19 -12 -19 -6 0
7 -7 12 -15 12 -17 0 -20 16 -5 25 6 3 10 13 10 22 0 11 -6 14 -26 9 -17 -5
-23 -3 -19 4 8 13 52 13 60 0 3 -5 13 -10 21 -10 8 0 12 5 9 10 -3 6 4 10 17
10 13 0 32 7 42 15 39 29 39 14 1 -25 l-39 -40 32 0 c18 0 32 -5 32 -11 0 -6
7 -9 15 -6 8 4 17 2 20 -4 11 -16 25 1 25 30 0 20 -6 30 -20 34 -19 5 -19 6
-1 43 21 42 14 65 -23 82 -14 6 -20 19 -22 50 -3 60 -11 66 -46 37 -33 -28
-53 -22 -46 11 5 26 -33 54 -75 54 -30 0 -37 -5 -51 -35 -9 -19 -21 -35 -27
-35 -5 0 -7 -11 -3 -24 4 -18 -1 -28 -22 -45 -15 -11 -32 -21 -40 -21 -7 0
-15 -13 -19 -28 -7 -34 -40 -59 -49 -37 -3 8 -2 15 2 15 4 0 7 14 8 30 1 25
-3 30 -21 30 -12 0 -34 9 -48 20 -14 11 -33 20 -42 20 -11 0 -15 5 -12 14 3 8
1 17 -6 20 -14 6 32 47 72 67 14 6 40 19 57 27 24 12 35 12 52 3 13 -7 28 -9
34 -5 7 5 26 7 42 6 28 -3 29 -2 13 16 -19 21 -11 34 31 46 12 4 22 12 22 17
0 20 29 39 54 37 24 -2 39 -28 16 -28 -5 0 -10 -5 -10 -11 0 -6 12 -8 33 -5
29 5 30 5 10 -6 -13 -6 -23 -15 -23 -20 0 -4 -11 -8 -24 -8 -32 0 -56 -10 -56
-22 0 -5 16 -8 35 -5 27 4 38 1 45 -12 5 -10 27 -25 49 -33 41 -16 52 -13 29
10 -7 7 -8 12 -2 12 6 0 15 -5 21 -11 9 -9 14 -5 19 17 5 18 3 29 -4 32 -7 2
-12 8 -12 13 0 13 28 11 32 -3 3 -9 12 -9 36 1 18 7 32 16 32 20 0 4 -14 15
-31 25 -24 14 -28 21 -18 27 11 7 9 13 -11 29 -14 11 -30 20 -37 20 -7 0 -17
9 -23 21 -11 19 -18 20 -98 17 -98 -5 -113 -3 -105 18 3 8 -1 14 -11 14 -9 0
-16 5 -16 11 0 7 -14 10 -35 7 -25 -3 -35 0 -37 12 -3 12 -5 11 -11 -4z"/>
<path d="M4272 4585 c-7 -9 -31 -15 -55 -16 -55 -1 -93 -13 -89 -27 1 -8 -12
-12 -34 -12 -29 0 -35 -3 -30 -16 4 -11 2 -15 -7 -11 -8 3 -20 1 -28 -3 -8 -5
-19 -4 -26 2 -9 7 -14 6 -19 -6 -3 -9 -10 -13 -15 -10 -5 3 -7 9 -4 13 2 5 -7
13 -20 19 -22 10 -27 8 -40 -12 -17 -25 -11 -56 10 -56 8 0 17 -5 21 -12 5 -8
2 -9 -12 -4 -10 4 -39 11 -64 16 -25 4 -54 10 -65 14 -15 5 -14 4 3 -5 35 -19
26 -27 -30 -26 -62 1 -118 -11 -118 -24 0 -5 -9 -9 -21 -9 -15 0 -19 5 -15 15
3 9 0 15 -10 15 -11 0 -15 -6 -11 -19 3 -15 -2 -20 -25 -25 -21 -4 -28 -10
-25 -21 5 -11 0 -13 -26 -9 -24 4 -28 3 -17 -5 13 -10 13 -11 0 -11 -21 0 -35
12 -43 34 -7 17 -4 18 30 13 40 -7 70 4 60 20 -9 14 -115 46 -149 45 -16 0
-26 4 -23 9 4 5 -2 9 -12 10 -10 0 -29 2 -43 3 -40 5 -173 -32 -164 -45 8 -13
-67 -84 -114 -108 -38 -20 -43 -25 -38 -51 2 -16 7 -34 11 -39 8 -14 42 -14
50 -1 11 18 30 10 47 -20 16 -29 16 -30 -3 -40 -19 -11 -23 -8 -20 22 2 12 -4
15 -19 11 -17 -4 -20 -12 -18 -42 3 -32 0 -36 -22 -39 -14 -2 -34 -12 -45 -23
-59 -55 -79 -69 -97 -63 -12 3 -18 0 -18 -9 0 -10 -7 -13 -19 -10 -10 3 -22 0
-26 -7 -4 -7 1 -13 12 -16 27 -7 44 -40 37 -70 -6 -24 -10 -25 -63 -24 -83 2
-81 3 -81 -36 0 -19 -5 -44 -10 -54 -6 -12 -7 -21 0 -25 5 -3 7 -12 3 -20 -4
-11 2 -15 20 -15 17 0 28 -7 32 -21 5 -16 -3 -29 -34 -58 -28 -26 -41 -46 -41
-64 0 -18 -10 -31 -34 -46 -19 -12 -37 -27 -40 -34 -3 -6 -15 -25 -26 -42 -39
-60 -51 -86 -44 -97 12 -19 12 -60 1 -103 -15 -57 -9 -86 23 -120 15 -16 34
-42 41 -56 8 -15 34 -43 58 -64 34 -27 50 -35 65 -29 12 4 41 8 66 8 25 1 69
10 99 20 l55 19 20 -26 c14 -17 33 -27 56 -29 32 -3 35 -6 35 -33 -1 -16 -4
-45 -8 -62 -5 -28 -2 -38 23 -66 51 -58 85 -194 56 -226 -9 -10 -19 -38 -22
-63 -5 -37 -1 -57 19 -99 13 -30 28 -76 32 -103 3 -27 20 -74 36 -106 16 -32
29 -69 29 -83 0 -30 24 -52 47 -42 10 4 40 9 67 11 32 3 61 13 82 29 40 31 95
110 98 143 2 13 13 29 27 36 21 10 24 19 24 63 0 43 5 56 29 82 17 17 35 31
42 31 25 0 44 44 44 100 0 31 -4 60 -9 66 -5 5 -11 32 -15 59 -5 45 -3 56 24
99 17 27 58 74 90 105 39 37 69 78 89 121 31 64 42 128 20 115 -27 -17 -124
-33 -136 -23 -18 15 -16 28 5 35 57 19 140 59 155 75 10 10 23 18 30 18 19 0
70 52 91 93 21 40 18 49 -25 71 -13 6 -26 22 -29 36 l-6 25 -18 -27 c-22 -34
-66 -39 -66 -9 0 24 -16 36 -23 19 -4 -10 -6 -10 -6 1 -1 7 -12 26 -26 43 -14
16 -25 34 -25 39 0 17 39 9 50 -10 5 -11 25 -29 44 -41 27 -16 40 -19 55 -11
15 9 22 6 33 -11 13 -19 25 -22 97 -24 74 -2 86 -5 110 -28 15 -14 34 -26 42
-26 11 0 11 -2 1 -8 -19 -13 21 -46 46 -38 17 6 20 0 25 -39 4 -25 22 -78 40
-118 19 -39 37 -82 41 -94 13 -42 32 -47 56 -13 17 23 22 45 22 90 0 49 3 60
19 65 10 4 19 10 19 14 0 4 18 26 40 49 22 22 40 46 40 52 0 5 9 10 21 10 11
0 28 4 38 9 14 8 24 1 54 -38 21 -27 37 -60 37 -75 0 -28 26 -36 48 -14 17 17
52 -72 52 -135 0 -33 6 -57 17 -69 17 -20 54 -118 43 -118 -3 0 -21 15 -39 34
-28 28 -81 54 -81 39 0 -2 17 -25 38 -51 21 -26 49 -69 63 -95 28 -55 74 -107
96 -107 9 0 13 -6 10 -14 -7 -18 27 -30 146 -50 56 -10 96 -12 110 -6 23 9 11
14 -29 11 -12 -1 -40 8 -62 19 -29 15 -50 20 -71 15 -17 -3 -32 -2 -36 4 -3 6
-15 11 -26 11 -18 0 -20 6 -19 43 4 58 2 69 -10 62 -6 -3 -17 1 -26 9 -8 9
-13 16 -9 16 3 0 1 9 -5 20 -9 16 -8 20 5 20 12 0 14 4 5 19 -5 11 -10 31 -10
44 0 16 -12 35 -32 52 -45 38 -60 72 -53 117 l7 37 26 -17 c44 -29 72 -58 72
-77 0 -14 8 -10 39 16 22 19 42 42 46 51 7 19 -28 108 -43 108 -4 0 -18 13
-30 29 l-21 29 20 26 c11 14 26 26 34 26 16 0 30 -33 16 -38 -15 -5 -14 -29 1
-38 17 -11 40 26 26 43 -14 18 -5 26 54 48 59 22 86 51 109 117 15 43 16 55 5
63 -7 6 -11 15 -9 22 2 6 -14 30 -36 53 l-40 42 24 24 c25 25 19 36 -18 34
-22 -2 -67 9 -67 16 0 8 44 54 52 54 4 0 8 -12 8 -26 0 -24 1 -24 21 -10 24
16 49 11 49 -10 0 -8 11 -19 25 -24 15 -6 27 -21 33 -42 7 -25 13 -32 28 -30
10 2 23 7 27 12 12 11 -10 50 -41 76 -22 18 -24 24 -13 37 7 9 10 21 6 27 -10
16 13 39 34 33 27 -7 42 20 48 85 4 46 2 65 -12 85 -9 15 -13 27 -7 27 6 0 28
-26 48 -57 21 -32 39 -60 40 -62 2 -1 8 0 14 4 8 5 5 13 -10 27 -12 11 -19 26
-17 33 3 7 -20 37 -50 66 -31 30 -52 48 -48 40 6 -11 3 -13 -16 -7 -13 4 -33
9 -44 10 -11 1 -32 6 -46 10 l-26 7 16 44 c8 24 22 46 31 48 8 2 55 2 105 1
59 -2 84 1 73 7 -20 11 -12 49 10 49 8 0 24 -8 34 -17 18 -16 19 -16 25 5 4
18 8 20 19 11 14 -12 10 -53 -8 -75 -15 -20 8 -58 65 -107 30 -26 58 -47 61
-47 4 0 5 16 3 35 -3 19 1 36 7 38 6 3 3 11 -9 21 -11 8 -16 16 -11 16 14 0
-25 40 -39 40 -7 0 -15 9 -18 20 -5 21 -3 21 70 25 13 0 28 9 35 18 7 10 27
21 43 26 l30 8 -33 17 c-61 31 -14 45 73 20 16 -4 21 0 22 15 1 16 -6 22 -35
26 -20 3 -59 13 -87 20 -128 37 -186 45 -295 42 -78 -2 -119 1 -137 10 -14 7
-48 13 -77 13 -28 1 -78 7 -111 15 -67 16 -159 20 -151 6 4 -5 -20 -11 -51
-13 -46 -4 -65 0 -93 16 -29 17 -54 21 -148 23 -104 2 -114 4 -131 24 -13 16
-34 25 -72 30 -30 4 -70 10 -89 13 -25 5 -39 2 -48 -9z m-991 -242 c-29 -25
-31 -31 -22 -56 6 -15 17 -30 25 -33 12 -5 11 -9 -5 -25 -10 -10 -19 -30 -19
-44 0 -14 -3 -26 -7 -26 -45 -7 -69 -7 -81 0 -13 7 -11 10 6 15 13 4 22 16 22
27 0 21 35 61 44 52 3 -4 6 -1 6 5 0 6 -10 12 -22 14 -28 4 -34 23 -12 40 9 7
26 23 38 35 11 13 30 23 41 23 16 0 14 -5 -14 -27z m294 -383 c3 -5 -3 -10
-15 -10 -12 0 -18 5 -15 10 3 6 10 10 15 10 5 0 12 -4 15 -10z m275 -6 c0 -8
-5 -12 -10 -9 -6 3 -17 -1 -26 -9 -14 -14 -13 -18 10 -39 20 -19 76 -122 76
-141 0 -12 -42 -5 -65 10 -29 19 -31 27 -9 48 14 14 14 17 1 22 -25 9 -70 82
-63 100 3 9 13 14 21 10 8 -3 14 -2 14 2 -3 17 3 22 26 22 16 0 25 -6 25 -16z
m-361 -18 c19 -21 27 -23 46 -14 19 8 31 6 64 -12 22 -13 38 -27 35 -32 -3 -4
2 -8 11 -8 9 0 13 -4 10 -10 -8 -13 -49 -13 -96 2 -31 9 -48 8 -79 -2 -35 -12
-43 -11 -55 1 -13 13 -12 20 6 57 12 23 24 42 28 42 4 0 18 -11 30 -24z m-382
-63 c22 -21 50 -45 63 -54 29 -19 19 -39 -21 -39 -36 0 -38 -13 -4 -28 32 -15
35 -15 35 -2 0 5 14 23 30 38 35 34 38 48 10 57 -11 3 -20 10 -20 15 0 4 -10
10 -22 14 -19 4 -20 7 -9 18 11 10 14 10 18 0 3 -6 8 -10 13 -7 14 9 46 -29
59 -70 15 -46 64 -97 69 -72 2 9 10 18 19 21 10 4 14 2 10 -8 -4 -10 -1 -13 9
-9 12 5 10 11 -10 32 -20 21 -23 30 -14 39 18 18 27 15 23 -8 -2 -11 2 -23 9
-27 20 -12 38 -52 30 -66 -4 -6 1 -4 12 5 13 11 24 14 34 8 9 -6 17 -5 21 2
12 19 38 1 32 -21 -6 -25 18 -29 37 -6 7 8 9 15 6 15 -4 0 -4 5 0 12 14 22 23
-30 11 -67 -10 -34 -13 -36 -40 -31 -16 3 -37 1 -47 -4 -17 -9 -83 6 -137 32
-28 14 -76 -13 -67 -37 4 -8 4 -15 1 -15 -13 0 -63 26 -72 37 -5 7 -21 14 -35
15 -34 4 -62 28 -49 44 7 8 7 14 0 18 -6 4 -8 13 -5 20 3 7 -1 16 -8 18 -23 8
-172 -10 -210 -26 -41 -17 -88 -21 -88 -7 0 5 12 9 26 9 15 0 30 6 35 13 5 8
9 10 9 5 0 -17 29 28 30 46 0 9 14 26 30 38 17 12 30 28 30 37 0 12 7 14 28
10 16 -3 35 0 46 9 27 19 28 19 73 -23z m481 -364 c9 -17 27 -43 39 -57 13
-15 23 -36 23 -48 0 -11 3 -24 8 -28 4 -4 7 -13 7 -19 1 -7 6 -11 13 -9 7 1
12 -2 12 -6 0 -5 9 -19 20 -32 11 -13 20 -37 20 -53 l0 -31 -30 29 c-16 16
-30 36 -30 45 0 9 -9 25 -20 35 -11 10 -20 28 -20 40 0 12 -9 34 -20 48 -11
14 -20 30 -20 36 0 5 -9 26 -21 45 -12 22 -16 36 -10 36 7 0 20 -14 29 -31z"/>
<path d="M3210 4205 c0 -8 5 -15 10 -15 6 0 10 7 10 15 0 8 -4 15 -10 15 -5 0
-10 -7 -10 -15z"/>
<path d="M3050 3865 c-14 -38 -7 -70 17 -71 18 -1 19 3 13 32 -4 19 -4 34 1
34 4 0 6 7 3 15 -9 22 -23 18 -34 -10z"/>
<path d="M3340 3710 c20 -13 50 -13 50 0 0 6 -15 10 -32 10 -25 0 -29 -3 -18
-10z"/>
<path d="M3795 4578 c-22 -6 -50 -12 -63 -14 -25 -5 -66 -64 -53 -77 4 -4 25
-10 47 -14 l39 -6 -24 20 -23 19 30 26 c17 14 49 29 72 33 22 4 38 11 34 16
-6 10 -4 10 -59 -3z"/>
<path d="M3645 4440 c4 -6 11 -8 16 -5 14 9 11 15 -7 15 -8 0 -12 -5 -9 -10z"/>
<path d="M2563 4378 c-2 -5 1 -8 6 -8 6 0 11 -7 11 -15 0 -21 46 -29 90 -16
44 13 59 29 39 41 -16 10 -139 8 -146 -2z"/>
<path d="M1605 4310 c-3 -5 1 -10 9 -10 8 0 18 5 21 10 3 6 -1 10 -9 10 -8 0
-18 -4 -21 -10z"/>
<path d="M1655 4300 c-3 -5 -2 -10 4 -10 5 0 13 5 16 10 3 6 2 10 -4 10 -5 0
-13 -4 -16 -10z"/>
<path d="M255 4260 c-3 -5 1 -10 9 -10 9 0 16 5 16 10 0 6 -4 10 -9 10 -6 0
-13 -4 -16 -10z"/>
<path d="M2830 4219 c0 -6 -6 -9 -13 -6 -10 4 -12 -3 -9 -25 2 -16 6 -27 9
-24 6 5 43 -26 43 -36 0 -5 -7 -8 -16 -8 -8 0 -13 -4 -9 -9 3 -5 0 -13 -6 -17
-8 -4 -7 -9 2 -15 11 -6 10 -9 -4 -15 -9 -3 -17 -10 -17 -15 0 -5 12 -4 28 2
15 6 28 10 30 10 1 -1 15 -1 31 -1 45 0 47 32 5 77 -23 24 -32 42 -28 55 4 12
0 18 -11 18 -9 0 -13 5 -10 10 3 6 -1 10 -9 10 -9 0 -16 -5 -16 -11z"/>
<path d="M2770 4150 c0 -5 -6 -10 -14 -10 -13 0 -29 -48 -20 -62 9 -15 69 21
75 45 4 14 4 28 1 31 -9 10 -42 7 -42 -4z"/>
<path d="M660 4108 c0 -12 1 -19 3 -17 1 2 9 12 16 22 12 14 11 17 -3 17 -10
0 -16 -8 -16 -22z"/>
<path d="M5455 3906 c0 -19 4 -38 9 -43 21 -21 36 -75 25 -94 -5 -11 -14 -17
-20 -14 -5 4 -9 -2 -9 -12 0 -13 -8 -19 -27 -21 -16 -1 -37 -13 -50 -29 -20
-24 -20 -28 -6 -50 18 -28 33 -30 33 -5 0 20 45 46 61 36 5 -3 12 1 15 9 3 8
19 17 36 21 22 4 29 10 24 22 -3 9 -9 33 -12 55 -4 24 -16 47 -30 58 -26 21
-32 44 -9 35 8 -3 23 1 35 9 18 12 19 16 5 27 -8 7 -15 10 -15 6 0 -4 -13 0
-30 9 -37 19 -35 21 -35 -19z"/>
<path d="M5244 3466 c-8 -20 -1 -47 11 -49 6 -1 11 13 13 31 3 32 -14 45 -24
18z"/>
<path d="M1238 3429 c-10 -5 -18 -15 -18 -20 0 -6 5 -7 11 -3 6 3 16 0 21 -7
8 -11 8 -10 4 4 -5 15 -2 17 17 12 45 -14 87 -37 81 -46 -3 -5 11 -9 30 -9 20
0 36 4 36 8 0 11 -124 72 -147 72 -10 0 -26 -5 -35 -11z"/>
<path d="M1437 3343 c5 -12 2 -15 -10 -10 -9 3 -17 2 -17 -3 0 -14 107 -16
120 -3 11 10 -35 33 -67 33 -26 0 -31 -3 -26 -17z"/>
<path d="M5268 3301 c-5 -38 18 -111 35 -111 5 0 6 7 3 16 -5 12 -2 15 10 10
8 -3 18 -6 20 -6 2 0 4 -7 4 -15 0 -8 -4 -15 -10 -15 -5 0 -10 -7 -10 -15 0
-8 4 -15 10 -15 5 0 6 -8 3 -17 -5 -12 -2 -15 10 -10 9 4 24 10 32 13 8 3 15
2 15 -4 0 -5 -7 -15 -15 -22 -8 -7 -15 -9 -15 -6 0 4 -9 2 -20 -4 -29 -16 -25
-32 6 -24 18 5 25 3 21 -3 -4 -6 0 -16 8 -23 11 -9 18 -9 30 3 19 19 19 19 -1
65 -9 20 -17 46 -18 57 -1 11 -7 19 -13 18 -12 -3 -17 9 -14 30 1 6 -15 9 -35
6 -14 -2 -22 25 -17 61 4 31 2 38 -15 42 -17 5 -21 0 -24 -31z"/>
<path d="M1335 3320 c3 -5 13 -10 21 -10 8 0 14 5 14 10 0 6 -9 10 -21 10 -11
0 -17 -4 -14 -10z"/>
<path d="M1550 3320 c0 -5 7 -10 15 -10 8 0 15 5 15 10 0 6 -7 10 -15 10 -8 0
-15 -4 -15 -10z"/>
<path d="M5247 3133 c-11 -13 -17 -27 -14 -30 3 -2 13 7 23 21 22 34 15 42 -9
9z"/>
<path d="M4482 3088 c2 -30 8 -43 18 -43 20 0 25 32 9 61 -19 36 -30 29 -27
-18z"/>
<path d="M5185 3024 c-22 -24 -46 -44 -53 -44 -7 0 -15 -7 -18 -15 -4 -8 -15
-15 -25 -15 -14 0 -19 -7 -19 -29 0 -17 5 -33 10 -36 6 -3 10 -15 10 -25 0
-18 6 -21 93 -36 35 -6 37 -5 37 19 0 14 5 29 10 32 6 3 10 15 10 26 0 11 6
22 14 25 12 5 12 9 0 32 -12 23 -11 30 2 50 9 13 14 25 12 25 -2 1 -12 10 -23
19 -19 15 -22 14 -60 -28z"/>
<path d="M5452 2958 c-15 -15 -16 -48 -2 -48 6 0 10 3 11 8 0 4 2 17 3 30 3
26 3 25 -12 10z"/>
<path d="M5380 2939 c0 -6 -17 -9 -41 -7 -23 2 -44 -1 -45 -7 -3 -8 32 -11 82
-6 14 1 27 31 14 31 -6 0 -10 -5 -10 -11z"/>
<path d="M4835 2930 c3 -5 8 -10 11 -10 2 0 4 5 4 10 0 6 -5 10 -11 10 -5 0
-7 -4 -4 -10z"/>
<path d="M5272 2868 c-8 -21 -9 -34 -2 -36 5 -2 10 -15 10 -28 0 -40 20 -27
21 14 l1 37 12 -34 c17 -48 42 -55 32 -10 -12 54 -12 64 2 62 6 -2 12 4 12 12
0 12 -5 13 -27 4 -19 -7 -29 -7 -31 0 -7 20 -17 12 -30 -21z"/>
<path d="M5515 2891 c-18 -7 -17 -9 10 -24 17 -9 25 -16 18 -17 -28 -1 1 -27
43 -39 47 -14 91 -60 66 -69 -21 -7 -13 -22 13 -22 14 0 25 -4 25 -10 0 -16
57 -12 64 5 9 24 41 17 63 -14 12 -15 33 -31 47 -33 33 -7 33 0 -5 40 -16 17
-27 37 -24 43 10 16 -41 57 -118 95 l-71 34 -27 -26 -28 -27 -7 29 c-10 42
-28 51 -69 35z"/>
<path d="M4860 2880 c0 -5 5 -10 11 -10 5 0 7 5 4 10 -3 6 -8 10 -11 10 -2 0
-4 -4 -4 -10z"/>
<path d="M5388 2863 c7 -3 16 -2 19 1 4 3 -2 6 -13 5 -11 0 -14 -3 -6 -6z"/>
<path d="M5450 2841 c0 -9 52 -22 60 -15 7 7 -23 24 -42 24 -10 0 -18 -4 -18
-9z"/>
<path d="M5410 2830 c0 -5 5 -10 10 -10 6 0 10 5 10 10 0 6 -4 10 -10 10 -5 0
-10 -4 -10 -10z"/>
<path d="M5903 2795 c-39 -21 -46 -35 -17 -35 14 0 70 48 63 54 -2 2 -23 -7
-46 -19z"/>
<path d="M5287 2709 c7 -7 21 -7 44 -1 l34 10 -44 1 c-32 1 -42 -2 -34 -10z"/>
<path d="M5366 2695 c-32 -29 -34 -44 -3 -21 12 9 32 21 45 26 27 12 28 20 3
20 -10 0 -30 -11 -45 -25z"/>
<path d="M5273 2683 c9 -9 19 -14 23 -11 10 10 -6 28 -24 28 -15 0 -15 -1 1
-17z"/>
<path d="M5710 2620 c-18 -65 -31 -100 -41 -106 -11 -6 -88 47 -89 61 0 6 7
21 16 33 14 21 14 22 -6 22 -12 0 -30 5 -41 10 -13 7 -19 7 -19 0 0 -5 -9 -10
-19 -10 -11 0 -28 -13 -38 -30 -18 -30 -37 -38 -48 -20 -14 23 -42 9 -74 -38
-8 -11 -20 -18 -27 -15 -8 3 -18 -5 -23 -19 -12 -31 -27 -43 -76 -57 -81 -25
-105 -43 -112 -84 -3 -20 -10 -40 -14 -43 -5 -3 -7 -9 -4 -14 13 -22 11 -131
-3 -151 -13 -18 -13 -23 2 -37 14 -15 19 -14 51 1 20 9 49 17 65 17 16 0 44 9
62 19 38 22 115 35 152 25 19 -4 27 -14 32 -40 3 -18 9 -33 13 -32 3 1 17 -2
29 -6 16 -5 22 -14 19 -26 -7 -28 8 -43 47 -44 19 -1 38 -5 42 -8 3 -4 19 -1
35 7 15 8 34 15 42 15 8 0 21 10 30 23 8 12 37 45 64 72 88 89 115 164 80 219
-10 14 -15 26 -12 26 4 0 -1 7 -9 16 -9 8 -16 22 -16 29 0 8 -9 20 -19 27 -13
9 -22 32 -27 66 -4 34 -11 52 -20 52 -8 0 -14 10 -15 23 0 12 -4 31 -8 42 -7
17 -10 13 -21 -25z"/>
<path d="M3850 2609 c-8 -17 -28 -38 -45 -47 -41 -23 -45 -31 -43 -75 1 -20
-3 -42 -10 -49 -16 -16 -15 -70 1 -92 9 -12 20 -16 38 -11 23 6 31 20 63 118
36 112 41 141 30 171 -9 23 -17 19 -34 -15z"/>
<path d="M6171 2092 c-1 -21 -9 -39 -26 -54 -13 -11 -22 -25 -19 -30 3 -5 0
-15 -6 -23 -22 -27 2 -16 57 25 56 43 65 55 33 45 -15 -5 -21 0 -26 22 -10 47
-12 49 -13 15z"/>
<path d="M5554 1957 c-3 -16 -4 -31 -1 -34 10 -9 42 7 59 31 17 24 17 24 -17
28 -31 4 -35 1 -41 -25z"/>
<path d="M6050 1968 c-14 -12 -52 -33 -86 -49 -72 -33 -94 -54 -64 -62 12 -3
33 4 52 19 18 13 43 28 56 34 12 5 28 14 35 20 6 6 21 17 32 25 13 9 17 17 10
24 -7 6 -18 3 -35 -11z"/>
</g>
</svg>
